2.8Hzlow3min_grf.mot
version=1
nRows=20
nColumns 19
inDegrees=yes
endheader
time	1_ground_force_vx	1_ground_force_vy	1_ground_force_vz	1_ground_force_px	1_ground_force_py	1_ground_force_pz	1_ground_torque_x	1_ground_torque_y	1_ground_torque_z	2_ground_force_vx	2_ground_force_vy	2_ground_force_vz	2_ground_force_px	2_ground_force_py	2_ground_force_pz	2_ground_torque_x	2_ground_torque_y	2_ground_torque_z
            2.502500	           -0.089637	           -0.003557	            0.825634	           -0.233013	            0.005581	           -0.255695	           -0.129105	           -0.036931	           -0.022545	            0.002412	           -0.734585	           -0.565765	           -0.232311	            0.006130	           -0.833667	           -0.263062	            0.008772	           -0.075255
            2.503000	           -0.502370	            0.176826	            0.781575	           -0.233013	            0.005581	           -0.255695	           -0.108630	           -0.036957	           -0.077791	            0.233420	            0.186333	           -0.374867	           -0.232311	            0.006130	           -0.833667	           -0.056355	           -0.009387	           -0.075411
            2.503500	            0.048560	           -0.545310	            1.052253	           -0.233013	            0.005581	           -0.255695	           -0.025930	           -0.055246	           -0.035795	            0.191887	           -1.287023	           -0.380104	           -0.232311	            0.006130	           -0.833667	           -0.131233	           -0.076029	           -0.019064
            2.504000	            0.094046	           -1.085312	            0.866397	           -0.233013	            0.005581	           -0.255695	           -0.168160	           -0.091829	           -0.127615	            0.143044	           -0.734747	           -0.378113	           -0.232311	            0.006130	           -0.833667	           -0.111825	           -0.246177	           -0.000829
            2.504500	            0.231573	            0.176181	            0.963178	           -0.233013	            0.005581	           -0.255695	           -0.078960	           -0.091826	           -0.103219	           -0.045164	           -0.550104	           -0.705873	           -0.232311	            0.006130	           -0.833667	           -0.074585	           -0.169949	           -0.132527
            2.505000	            0.047991	           -0.544327	            0.822974	           -0.233013	            0.005581	           -0.255695	           -0.147650	           -0.064360	           -0.073128	            0.284758	           -1.101197	           -0.754912	           -0.232311	            0.006130	           -0.833667	           -0.168879	           -0.066376	           -0.113265
            2.505500	           -0.273464	           -0.002806	            0.642665	           -0.233013	            0.005581	           -0.255695	           -0.177759	           -0.036789	           -0.086637	           -0.046432	           -0.182309	           -0.563774	           -0.232311	            0.006130	           -0.833667	           -0.093859	           -0.019245	           -0.000028
            2.506000	           -0.089670	            0.176709	            0.826407	           -0.233013	            0.005581	           -0.255695	           -0.167048	           -0.017968	           -0.135165	            0.142859	           -0.733241	           -0.800466	           -0.232311	            0.006130	           -0.833667	           -0.112745	           -0.000138	           -0.075353
            2.506500	           -0.043126	           -0.545328	            1.052481	           -0.233013	            0.005581	           -0.255695	           -0.138902	           -0.036259	           -0.170929	            0.194381	           -2.022277	           -0.758157	           -0.232311	            0.006130	           -0.833667	           -0.055982	           -0.094999	            0.075088
            2.507000	           -0.090044	            0.357565	            0.689612	           -0.233013	            0.005581	           -0.255695	           -0.142469	           -0.073509	           -0.116672	            0.144976	           -1.286690	           -0.520868	           -0.232311	            0.006130	           -0.833667	           -0.131242	           -0.066778	            0.037520
            2.507500	            0.048527	           -0.365044	            1.053026	           -0.233013	            0.005581	           -0.255695	           -0.044870	           -0.027439	           -0.054433	            0.193799	           -1.838798	           -0.569788	           -0.232311	            0.006130	           -0.833667	           -0.168488	           -0.161306	           -0.000501
            2.508000	            0.094158	            0.175958	            1.009375	           -0.233013	            0.005581	           -0.255695	           -0.080894	           -0.027265	           -0.090004	            0.286855	           -1.654479	           -0.522242	           -0.232311	            0.006130	           -0.833667	           -0.168546	           -0.160836	           -0.132453
            2.508500	            0.139725	           -0.183975	            0.870148	           -0.233013	            0.005581	           -0.255695	           -0.074692	           -0.064382	           -0.050614	            0.142215	           -0.549260	           -0.752881	           -0.232311	            0.006130	           -0.833667	           -0.149924	           -0.104388	           -0.038008
            2.509000	            0.138865	           -1.083534	            0.453580	           -0.233013	            0.005581	           -0.255695	           -0.150432	           -0.008871	           -0.068954	            0.141488	           -0.364609	           -0.893008	           -0.232311	            0.006130	           -0.833667	           -0.168881	           -0.048008	            0.037604
            2.509500	           -0.043225	           -0.004531	            1.054800	           -0.233013	            0.005581	           -0.255695	           -0.120523	           -0.045418	           -0.189831	            0.140803	           -0.180293	           -0.939279	           -0.232311	            0.006130	           -0.833667	           -0.281677	           -0.038559	           -0.075416
            2.510000	           -0.089781	           -1.084561	            0.683428	           -0.233013	            0.005581	           -0.255695	           -0.160218	           -0.092160	           -0.079061	            0.280167	            0.187339	           -0.609528	           -0.232311	            0.006130	           -0.833667	           -0.150206	           -0.019515	            0.018847
            2.510500	           -0.272895	           -0.003789	            0.871945	           -0.233013	            0.005581	           -0.255695	            0.000327	           -0.046232	           -0.030726	            0.421505	            0.002694	           -0.328676	           -0.232311	            0.006130	           -0.833667	           -0.206392	           -0.066982	            0.018702
            2.511000	           -0.043647	           -0.184010	            0.870603	           -0.233013	            0.005581	           -0.255695	           -0.037306	           -0.073461	           -0.114959	            0.282305	           -0.366277	           -0.283002	           -0.232311	            0.006130	           -0.833667	           -0.168752	           -0.094936	           -0.056816
            2.511500	            0.002801	           -1.626716	            1.001873	           -0.233013	            0.005581	           -0.255695	           -0.098331	           -0.027633	           -0.018615	            0.141070	           -0.182469	           -0.329214	           -0.232311	            0.006130	           -0.833667	           -0.130952	           -0.151718	           -0.000484
            2.512000	            0.094095	           -0.724977	            0.913799	           -0.233013	            0.005581	           -0.255695	           -0.076260	           -0.055239	           -0.033709	            0.234565	           -0.180457	           -0.798534	           -0.232311	            0.006130	           -0.833667	           -0.168777	           -0.094734	           -0.113367
